<?xml version="1.0" encoding="UTF-8"?>
<!DOCTYPE svg PUBLIC "-//W3C//DTD SVG 1.1//EN" "http://www.w3.org/Graphics/SVG/1.1/DTD/svg11.dtd">
<svg xmlns="http://www.w3.org/2000/svg" version="1.1" width="3424px" height="857px" style="shape-rendering:geometricPrecision; text-rendering:geometricPrecision; image-rendering:optimizeQuality; fill-rule:evenodd; clip-rule:evenodd" xmlns:xlink="http://www.w3.org/1999/xlink">
<g><path style="opacity:0.992" fill="#fafcfc" d="M 1413.5,-0.5 C 1435.17,-0.5 1456.83,-0.5 1478.5,-0.5C 1645.86,7.89126 1794.19,64.7246 1923.5,170C 1938.97,183.8 1954.13,197.967 1969,212.5C 1969.5,257.165 1969.67,301.832 1969.5,346.5C 1965.15,346.666 1960.82,346.499 1956.5,346C 1850.71,243.418 1725.38,175.751 1580.5,143C 1419.88,112.326 1267.22,134.992 1122.5,211C 1054.02,247.479 991.687,292.479 935.5,346C 931.179,346.499 926.846,346.666 922.5,346.5C 922.333,301.499 922.5,256.499 923,211.5C 1059.74,80.2629 1223.24,9.59622 1413.5,-0.5 Z"/></g>
<g><path style="opacity:0.993" fill="#fafcfc" d="M 2011.5,267.5 C 2043.83,267.5 2076.17,267.5 2108.5,267.5C 2108.5,460.5 2108.5,653.5 2108.5,846.5C 2076.17,846.5 2043.83,846.5 2011.5,846.5C 2011.5,653.5 2011.5,460.5 2011.5,267.5 Z"/></g>
<g><path style="opacity:0.992" fill="#fafcfc" d="M -0.5,283.5 C 32.0733,283.171 64.5733,283.504 97,284.5C 186.667,419.167 276.333,553.833 366,688.5C 366.5,553.5 366.667,418.5 366.5,283.5C 398.833,283.5 431.167,283.5 463.5,283.5C 463.5,471.167 463.5,658.833 463.5,846.5C 430.593,846.829 397.76,846.496 365,845.5C 275.667,711.5 186.333,577.5 97,443.5C 96.5,577.833 96.3333,712.166 96.5,846.5C 64.1667,846.5 31.8333,846.5 -0.5,846.5C -0.5,658.833 -0.5,471.167 -0.5,283.5 Z"/></g>
<g><path style="opacity:0.989" fill="#fafcfc" d="M 2461.5,283.5 C 2497.5,283.333 2533.5,283.5 2569.5,284C 2638.17,471.333 2706.83,658.667 2775.5,846C 2741.17,846.667 2706.83,846.667 2672.5,846C 2656.47,802.412 2641.14,758.578 2626.5,714.5C 2552.16,714.167 2477.83,714.5 2403.5,715.5C 2387.97,758.758 2372.64,802.091 2357.5,845.5C 2323.51,846.5 2289.51,846.833 2255.5,846.5C 2323.77,658.687 2392.44,471.02 2461.5,283.5 Z M 2514.5,399.5 C 2542.77,478.138 2570.77,556.972 2598.5,636C 2542.83,636.5 2487.17,636.667 2431.5,636.5C 2458.97,557.432 2486.63,478.432 2514.5,399.5 Z"/></g>
<g><path style="opacity:0.988" fill="#fafcfc" d="M 714.5,856.5 C 706.167,856.5 697.833,856.5 689.5,856.5C 613.481,852.245 557.314,816.911 521,750.5C 500.253,704.532 493.586,656.532 501,606.5C 509.271,544.984 538.771,496.818 589.5,462C 629.228,438.385 672.228,428.385 718.5,432C 795.493,438.054 850.326,475.887 883,545.5C 898.028,584.913 902.861,625.58 897.5,667.5C 796.5,667.5 695.5,667.5 594.5,667.5C 596.076,702.813 610.076,731.98 636.5,755C 669.047,776.934 704.047,781.601 741.5,769C 763.355,760.311 778.688,745.145 787.5,723.5C 820.835,723.333 854.168,723.5 887.5,724C 865.102,793.059 818.435,835.726 747.5,852C 736.407,853.927 725.407,855.427 714.5,856.5 Z M 688.5,511.5 C 726.859,507.664 758.359,520.33 783,549.5C 794.54,565.984 800.373,584.317 800.5,604.5C 732.5,604.5 664.5,604.5 596.5,604.5C 605.132,551.536 635.798,520.536 688.5,511.5 Z"/></g>
<g><path style="opacity:0.994" fill="#fafcfc" d="M 1584.5,431.5 C 1589.5,431.5 1594.5,431.5 1599.5,431.5C 1599.5,465.5 1599.5,499.5 1599.5,533.5C 1580.81,533.164 1562.14,533.664 1543.5,535C 1483.04,542.804 1451.87,577.304 1450,638.5C 1449.5,707.833 1449.33,777.166 1449.5,846.5C 1417.17,846.5 1384.83,846.5 1352.5,846.5C 1352.5,711.5 1352.5,576.5 1352.5,441.5C 1381.5,441.5 1410.5,441.5 1439.5,441.5C 1441.8,466.18 1444.3,490.846 1447,515.5C 1477.64,462.917 1523.47,434.917 1584.5,431.5 Z"/></g>
<g><path style="opacity:0.989" fill="#fafcfc" d="M 1756.5,856.5 C 1748.5,856.5 1740.5,856.5 1732.5,856.5C 1698.79,855.571 1668.12,845.404 1640.5,826C 1616.35,806.211 1602.18,780.711 1598,749.5C 1591.94,693.447 1613.77,652.614 1663.5,627C 1691.15,614.602 1720.15,607.935 1750.5,607C 1791.17,606.5 1831.83,606.333 1872.5,606.5C 1870.52,530.713 1832.19,500.213 1757.5,515C 1727.23,522.771 1709.23,541.938 1703.5,572.5C 1671.5,572.5 1639.5,572.5 1607.5,572.5C 1613.41,518.449 1640.41,478.949 1688.5,454C 1729.75,434.458 1773.09,427.458 1818.5,433C 1863.39,436.368 1901.55,453.868 1933,485.5C 1955.24,512.354 1967.24,543.354 1969,578.5C 1969.5,667.833 1969.67,757.166 1969.5,846.5C 1941.5,846.5 1913.5,846.5 1885.5,846.5C 1882.87,825.747 1879.71,805.08 1876,784.5C 1856.87,818.507 1828.37,840.674 1790.5,851C 1779.15,853.663 1767.82,855.496 1756.5,856.5 Z M 1764.5,669.5 C 1799.5,669.333 1834.5,669.5 1869.5,670C 1866.39,704.381 1852.72,733.715 1828.5,758C 1802.42,777.628 1773.42,783.628 1741.5,776C 1704.23,764.286 1691.73,739.786 1704,702.5C 1713.62,686.923 1727.45,677.089 1745.5,673C 1751.97,671.813 1758.31,670.646 1764.5,669.5 Z"/></g>
<g><path style="opacity:0.99" fill="#fafcfc" d="M 3020.5,431.5 C 3025.83,431.5 3031.17,431.5 3036.5,431.5C 3036.5,465.5 3036.5,499.5 3036.5,533.5C 3017.47,533.16 2998.47,533.66 2979.5,535C 2928.84,539.559 2898.67,566.725 2889,616.5C 2887.2,627.759 2886.2,639.092 2886,650.5C 2885.5,715.832 2885.33,781.166 2885.5,846.5C 2853.17,846.5 2820.83,846.5 2788.5,846.5C 2788.5,711.5 2788.5,576.5 2788.5,441.5C 2817.5,441.5 2846.5,441.5 2875.5,441.5C 2877.94,465.891 2880.77,490.225 2884,514.5C 2914.45,462.509 2959.95,434.842 3020.5,431.5 Z"/></g>
<g><path style="opacity:0.988" fill="#fafcfc" d="M 3423.5,576.5 C 3423.5,578.167 3423.5,579.833 3423.5,581.5C 3389.49,581.833 3355.49,581.5 3321.5,580.5C 3309.19,541.991 3282.86,520.491 3242.5,516C 3186.25,512.699 3148.75,537.532 3130,590.5C 3119.52,628.042 3120.19,665.375 3132,702.5C 3152.96,753.899 3191.12,777.066 3246.5,772C 3284.86,765.848 3309.86,744.348 3321.5,707.5C 3355.49,706.5 3389.49,706.167 3423.5,706.5C 3423.5,707.833 3423.5,709.167 3423.5,710.5C 3402.55,789.51 3351.88,837.01 3271.5,853C 3261.71,854.432 3252.05,855.599 3242.5,856.5C 3234.17,856.5 3225.83,856.5 3217.5,856.5C 3154.09,853.548 3102.93,827.215 3064,777.5C 3031.46,729.493 3018.46,676.493 3025,618.5C 3030.63,555.373 3058.47,504.873 3108.5,467C 3150.07,439.856 3195.74,428.189 3245.5,432C 3304.34,434.35 3352.5,457.85 3390,502.5C 3406.35,524.857 3417.51,549.524 3423.5,576.5 Z"/></g>
<g><path style="opacity:0.989" fill="#fafcfc" d="M 1088.5,856.5 C 1080.83,856.5 1073.17,856.5 1065.5,856.5C 990.713,851.547 944.879,812.547 928,739.5C 925.514,727.614 923.848,715.614 923,703.5C 922.5,616.167 922.333,528.834 922.5,441.5C 954.833,441.5 987.167,441.5 1019.5,441.5C 1019.33,522.501 1019.5,603.501 1020,684.5C 1026.34,754.492 1064.17,783.325 1133.5,771C 1168.33,760.167 1191.17,737.333 1202,702.5C 1204.44,693.64 1206.11,684.64 1207,675.5C 1207.5,597.501 1207.67,519.501 1207.5,441.5C 1240.17,441.5 1272.83,441.5 1305.5,441.5C 1305.5,576.5 1305.5,711.5 1305.5,846.5C 1276.5,846.5 1247.5,846.5 1218.5,846.5C 1216.66,824.475 1214.5,802.475 1212,780.5C 1193.11,815.378 1164.61,838.545 1126.5,850C 1113.86,853.16 1101.19,855.326 1088.5,856.5 Z"/></g>
</svg>
